<svg width="14" height="14" viewBox="0 0 14 14" fill="none" xmlns="http://www.w3.org/2000/svg">
<path d="M13.2666 13.8908L13.8918 13.2654C13.9612 13.193 14 13.0967 14 12.9964C14 12.8961 13.9612 12.7997 13.8918 12.7274L8.17786 6.99951L13.8918 1.27166C13.9612 1.19932 14 1.10293 14 1.00265C14 0.902373 13.9612 0.805981 13.8918 0.73364L13.2666 0.108218C13.1943 0.0387766 13.098 -3.94288e-08 12.9977 -4.38103e-08C12.8975 -4.81918e-08 12.8011 0.0387766 12.7288 0.108218L6.10816 6.73147C6.03875 6.80382 6 6.90021 6 7.00048C6 7.10076 6.03875 7.19715 6.10816 7.26949L12.7288 13.8927C12.8014 13.9619 12.8979 14.0004 12.9981 14C13.0984 13.9996 13.1946 13.9605 13.2666 13.8908Z" fill="#231F20"/>
<path d="M7.26665 13.8908L7.89181 13.2654C7.96122 13.193 8 13.0967 8 12.9964C8 12.8961 7.96122 12.7997 7.89181 12.7274L2.17786 6.99951L7.89181 1.27166C7.96122 1.19932 8 1.10293 8 1.00265C8 0.902373 7.96122 0.805981 7.89181 0.73364L7.26665 0.108218C7.19434 0.0387766 7.09797 -3.94288e-08 6.99774 -4.38103e-08C6.8975 -4.81918e-08 6.80114 0.0387766 6.72883 0.108218L0.108163 6.73147C0.0387489 6.80382 -3.01618e-07 6.90021 -3.06001e-07 7.00048C-3.10384e-07 7.10076 0.0387489 7.19715 0.108163 7.26949L6.72883 13.8927C6.80139 13.9619 6.89788 14.0004 6.99812 14C7.09836 13.9996 7.19459 13.9605 7.26665 13.8908Z" fill="#231F20"/>
</svg>
