<svg width="11" height="7" viewBox="0 0 11 7" fill="none" xmlns="http://www.w3.org/2000/svg">
<path d="M5.20784 6.87052L0.121103 1.4806C0.0827119 1.43964 0.0522556 1.391 0.0314757 1.33746C0.0106958 1.28391 0 1.22652 0 1.16856C0 1.11059 0.0106958 1.0532 0.0314757 0.999656C0.0522556 0.946112 0.0827119 0.89747 0.121103 0.856511L0.80166 0.12948C0.839995 0.0884361 0.885533 0.0558728 0.935665 0.0336546C0.985797 0.0114365 1.03954 0 1.09381 0C1.14809 0 1.20183 0.0114365 1.25196 0.0336546C1.3021 0.0558728 1.34763 0.0884361 1.38597 0.12948L5.5 4.48026L9.61392 0.12948C9.65225 0.0884361 9.69779 0.0558728 9.74792 0.0336546C9.79806 0.0114365 9.8518 0 9.90607 0C9.96035 0 10.0141 0.0114365 10.0642 0.0336546C10.1144 0.0558728 10.1599 0.0884361 10.1982 0.12948L10.8789 0.856041C10.9173 0.897 10.9477 0.945642 10.9685 0.999186C10.9893 1.05273 11 1.11012 11 1.16809C11 1.22605 10.9893 1.28344 10.9685 1.33699C10.9477 1.39053 10.9173 1.43917 10.8789 1.48013L5.79215 6.87052C5.75382 6.91156 5.70828 6.94413 5.65815 6.96635C5.60802 6.98856 5.55427 7 5.5 7C5.44572 7 5.39198 6.98856 5.34185 6.96635C5.29172 6.94413 5.24618 6.91156 5.20784 6.87052Z" fill="#848F99"/>
</svg>
