<svg width="14" height="14" viewBox="0 0 14 14" fill="none" xmlns="http://www.w3.org/2000/svg">
<path d="M0.733352 13.8908L0.108193 13.2654C0.0387791 13.193 5.72473e-07 13.0967 5.6809e-07 12.9964C5.63706e-07 12.8961 0.0387791 12.7997 0.108193 12.7274L5.82214 6.99951L0.108193 1.27166C0.0387786 1.19932 4.82104e-08 1.10293 4.38272e-08 1.00265C3.9444e-08 0.902373 0.0387786 0.805981 0.108193 0.73364L0.733351 0.108218C0.805664 0.0387766 0.902026 -3.94288e-08 1.00226 -4.38103e-08C1.1025 -4.81918e-08 1.19886 0.0387766 1.27117 0.108218L7.89184 6.73147C7.96125 6.80382 8 6.90021 8 7.00048C8 7.10076 7.96125 7.19715 7.89184 7.26949L1.27117 13.8927C1.19861 13.9619 1.10212 14.0004 1.00188 14C0.901641 13.9996 0.805414 13.9605 0.733352 13.8908Z" fill="#231F20"/>
<path d="M6.73335 13.8908L6.10819 13.2654C6.03878 13.193 6 13.0967 6 12.9964C6 12.8961 6.03878 12.7997 6.10819 12.7274L11.8221 6.99951L6.10819 1.27166C6.03878 1.19932 6 1.10293 6 1.00265C6 0.902373 6.03878 0.805981 6.10819 0.73364L6.73335 0.108218C6.80566 0.0387766 6.90203 -3.94288e-08 7.00226 -4.38103e-08C7.1025 -4.81918e-08 7.19886 0.0387766 7.27117 0.108218L13.8918 6.73147C13.9613 6.80382 14 6.90021 14 7.00048C14 7.10076 13.9613 7.19715 13.8918 7.26949L7.27117 13.8927C7.19861 13.9619 7.10212 14.0004 7.00188 14C6.90164 13.9996 6.80541 13.9605 6.73335 13.8908Z" fill="#231F20"/>
</svg>
